<svg xmlns="http://www.w3.org/2000/svg" width="1410" height="890" viewBox="0 0 1410 890">
  <defs>
    <marker id="arrow" viewBox="0 0 10 10" refX="9" refY="5" markerWidth="7" markerHeight="7" orient="auto"><path d="M 0 0 L 10 5 L 0 10 z" fill="#454854"/></marker>
  </defs>
  <rect width="1410" height="890" fill="#FFFFFF"/>
  <text x="705" y="46" text-anchor="middle" font-family="Helvetica, Arial, sans-serif" font-size="26" font-weight="bold" fill="#242631">Nemotron 3 Nano Omni</text>

  <!-- ================= audio row ================= -->
  <rect x="48" y="84" width="1236" height="148" rx="14" fill="#F4FAF6" stroke="#BEDACB" stroke-width="1.4"/>
  <text x="66" y="112" font-family="Helvetica, Arial, sans-serif" font-size="14" font-weight="bold" fill="#2D674D">Audio path</text>
  <g font-family="Helvetica, Arial, sans-serif">
    <rect x="66" y="120" width="384" height="100" rx="10" fill="#FFFFFF" stroke="#7FB39A" stroke-width="1.6"/>
    <text x="258" y="158" text-anchor="middle" font-size="15" font-weight="bold" fill="#2D674D">Audio</text>
    <path d="M196 190 h12 l9 -20 l11 38 l11 -30 l10 20 h13 l9 -13 l10 13 h22" stroke="#5B9C7C" stroke-width="2" fill="none"/>
    <rect x="474" y="120" width="384" height="100" rx="10" fill="#E4F2EA" stroke="#5B9C7C" stroke-width="1.6"/>
    <text x="666" y="156" text-anchor="middle" font-size="15" font-weight="bold" fill="#245740">Parakeet-TDT-0.6B-v2</text>
    <text x="666" y="180" text-anchor="middle" font-size="12.5" fill="#337054">FastConformer encoder</text>
    <text x="666" y="202" text-anchor="middle" font-size="12.5" fill="#337054">12.5 tokens per second</text>
    <rect x="882" y="120" width="384" height="100" rx="10" fill="#C9E5D5" stroke="#3F8763" stroke-width="1.8"/>
    <text x="1074" y="162" text-anchor="middle" font-size="15" font-weight="bold" fill="#1D4B36">Audio adaptor</text>
    <text x="1074" y="188" text-anchor="middle" font-size="12.5" fill="#2A5E47">MLP projector</text>
  </g>

  <!-- ================= vision row ================= -->
  <rect x="48" y="248" width="1236" height="148" rx="14" fill="#F8F5FC" stroke="#CDBCE2" stroke-width="1.4"/>
  <text x="66" y="276" font-family="Helvetica, Arial, sans-serif" font-size="14" font-weight="bold" fill="#5A3F82">Vision path</text>
  <g font-family="Helvetica, Arial, sans-serif">
    <rect x="66" y="284" width="180" height="100" rx="10" fill="#FFFFFF" stroke="#B49AD4" stroke-width="1.6"/>
    <text x="156" y="318" text-anchor="middle" font-size="15" font-weight="bold" fill="#4A2F70">Images / video</text>
    <text x="156" y="342" text-anchor="middle" font-size="12" fill="#5F4A85">dynamic resolution</text>
    <g fill="#E4D8F4" stroke="#8058AE" stroke-width="1.1"><rect x="120" y="362" width="30" height="18"/><rect x="132" y="356" width="30" height="18"/><rect x="144" y="350" width="30" height="18"/></g>
    <rect x="270" y="284" width="180" height="100" rx="10" fill="#F0E9F9" stroke="#A98ACC" stroke-width="1.6"/>
    <text x="360" y="318" text-anchor="middle" font-size="15" font-weight="bold" fill="#4A2F70">3D convolution</text>
    <text x="360" y="342" text-anchor="middle" font-size="12" fill="#5F4A85">2 frames per tubelet</text>
    <text x="360" y="364" text-anchor="middle" font-size="12" fill="#5F4A85">video only</text>
    <rect x="474" y="284" width="180" height="100" rx="10" fill="#E6DBF5" stroke="#9A78C0" stroke-width="1.6"/>
    <text x="564" y="318" text-anchor="middle" font-size="15" font-weight="bold" fill="#452A6B">C-RADIOv4-H</text>
    <text x="564" y="342" text-anchor="middle" font-size="12" fill="#5A4480">vision encoder</text>
    <g fill="#CDB9E9" stroke="#7A51A8" stroke-width="0.8"><rect x="523" y="354" width="14" height="14"/><rect x="540" y="354" width="14" height="14"/><rect x="557" y="354" width="14" height="14"/><rect x="574" y="354" width="14" height="14"/><rect x="591" y="354" width="14" height="14"/></g>
    <rect x="678" y="284" width="180" height="100" rx="10" fill="#DACBF0" stroke="#7A51A8" stroke-width="2.2"/>
    <text x="768" y="318" text-anchor="middle" font-size="15" font-weight="bold" fill="#3E2463">Pixel shuffle</text>
    <text x="768" y="342" text-anchor="middle" font-size="12" fill="#4F3775">4x downsampling</text>
    <text x="768" y="364" text-anchor="middle" font-size="12" fill="#4F3775">before projection</text>
    <rect x="882" y="284" width="180" height="100" rx="10" fill="#CFBCEB" stroke="#6E44A0" stroke-width="1.8"/>
    <text x="972" y="326" text-anchor="middle" font-size="15" font-weight="bold" fill="#38205C">Vision adaptor</text>
    <text x="972" y="352" text-anchor="middle" font-size="12.5" fill="#48306E">MLP projector</text>
    <rect x="1086" y="284" width="180" height="100" rx="10" fill="#C2ACE6" stroke="#5E3492" stroke-width="2.2"/>
    <text x="1176" y="318" text-anchor="middle" font-size="15" font-weight="bold" fill="#301A52">EVS</text>
    <text x="1176" y="342" text-anchor="middle" font-size="12" fill="#402868">drops redundant tokens</text>
    <text x="1176" y="364" text-anchor="middle" font-size="12" fill="#402868">video, inference only</text>
  </g>

  <!-- ================= text row ================= -->
  <rect x="48" y="412" width="1236" height="148" rx="14" fill="#F3F6FC" stroke="#C2CEE6" stroke-width="1.4"/>
  <text x="66" y="440" font-family="Helvetica, Arial, sans-serif" font-size="14" font-weight="bold" fill="#2F4370">Text path</text>
  <g font-family="Helvetica, Arial, sans-serif">
    <rect x="66" y="448" width="588" height="100" rx="10" fill="#FFFFFF" stroke="#93A8D0" stroke-width="1.6"/>
    <text x="360" y="490" text-anchor="middle" font-size="15" font-weight="bold" fill="#2F4370">Text prompt</text>
    <text x="360" y="516" text-anchor="middle" font-size="12.5" fill="#455A85">instruction sequence</text>
    <rect x="678" y="448" width="588" height="100" rx="10" fill="#D9E3F5" stroke="#5E7BB4" stroke-width="1.8"/>
    <text x="972" y="490" text-anchor="middle" font-size="15" font-weight="bold" fill="#23345C">Text tokenizer</text>
    <text x="972" y="516" text-anchor="middle" font-size="12.5" fill="#33477A">token embeddings</text>
  </g>

  <!-- ================= token sequence ================= -->
  <rect x="295" y="616" width="820" height="96" rx="12" fill="#F7F7FA" stroke="#9DA2B0" stroke-width="1.8"/>
  <text x="705" y="642" text-anchor="middle" font-family="Helvetica, Arial, sans-serif" font-size="15" font-weight="bold" fill="#3E4250">Concatenated multimodal token sequence</text>
  <g stroke-width="1">
    <rect x="349" y="654" width="64" height="30" rx="5" fill="#D9E3F5" stroke="#5E7BB4"/><rect x="421" y="654" width="64" height="30" rx="5" fill="#D9E3F5" stroke="#5E7BB4"/><rect x="493" y="654" width="64" height="30" rx="5" fill="#C9E5D5" stroke="#3F8763"/><rect x="565" y="654" width="64" height="30" rx="5" fill="#C2ACE6" stroke="#5E3492"/><rect x="637" y="654" width="64" height="30" rx="5" fill="#C9E5D5" stroke="#3F8763"/><rect x="709" y="654" width="64" height="30" rx="5" fill="#C2ACE6" stroke="#5E3492"/><rect x="781" y="654" width="64" height="30" rx="5" fill="#C9E5D5" stroke="#3F8763"/><rect x="853" y="654" width="64" height="30" rx="5" fill="#C2ACE6" stroke="#5E3492"/><rect x="925" y="654" width="64" height="30" rx="5" fill="#C9E5D5" stroke="#3F8763"/><rect x="997" y="654" width="64" height="30" rx="5" fill="#C2ACE6" stroke="#5E3492"/>
  </g>
  <g font-family="Helvetica, Arial, sans-serif" font-size="11" font-weight="bold" text-anchor="middle">
    <text x="381" y="674" fill="#23345C">T</text><text x="453" y="674" fill="#23345C">T</text><text x="525" y="674" fill="#1D4B36">A1</text><text x="597" y="674" fill="#301A52">V1</text><text x="669" y="674" fill="#1D4B36">A2</text><text x="741" y="674" fill="#301A52">V2</text><text x="813" y="674" fill="#1D4B36">A3</text><text x="885" y="674" fill="#301A52">V3</text><text x="957" y="674" fill="#1D4B36">A4</text><text x="1029" y="674" fill="#301A52">V4</text>
  </g>
  <text x="705" y="702" text-anchor="middle" font-family="Helvetica, Arial, sans-serif" font-size="12" fill="#5A5E6C">T text, A audio, V visual; audio and visual interleaved in temporal order</text>

  <!-- ================= backbone ================= -->
  <rect x="405" y="758" width="600" height="86" rx="14" fill="#E7E9F0" stroke="#5C6377" stroke-width="2.4"/>
  <text x="705" y="792" text-anchor="middle" font-family="Helvetica, Arial, sans-serif" font-size="18" font-weight="bold" fill="#242631">Nemotron 3 Nano 30B-A3B LLM</text>
  <text x="705" y="818" text-anchor="middle" font-family="Helvetica, Arial, sans-serif" font-size="13" fill="#4F5464">MoE hybrid backbone and text decoder</text>

  <!-- ================= wiring ================= -->
  <g stroke="#454854" stroke-width="1.8" fill="none" marker-end="url(#arrow)">
    <path d="M450 170 H470"/><path d="M858 170 H878"/>
    <path d="M246 334 H266"/><path d="M450 334 H470"/><path d="M654 334 H674"/><path d="M858 334 H878"/><path d="M1062 334 H1082"/>
    <path d="M654 498 H674"/>
    <path d="M1266 170 H1346"/><path d="M1266 334 H1346"/><path d="M1266 498 H1346"/>
    <path d="M1350 170 V596 H705 V612"/>
    <path d="M705 712 V754"/>
  </g>
  <g fill="#454854">
    <circle cx="1350" cy="170" r="4"/><circle cx="1350" cy="334" r="4"/><circle cx="1350" cy="498" r="4"/>
  </g>
</svg>
